<svg version="1.2" xmlns="http://www.w3.org/2000/svg" viewBox="0 0 308 361" width="308" height="361">
	<title>New Project</title>
	<style>
		.s0 { fill: #000000 } 
		.s1 { fill: #d30c36 } 
	</style>
	<g id="&lt;Group&gt; copy 8">
		<g id="&lt;Group&gt;">
			<path id="&lt;Path&gt;" class="s0" d="m307.1 245.6v26.8l-5.3 3q-74.1 42.8-148.3 85.6l-153.5-88.6v-177.3l153.5-88.6v34.8l-123.4 71.2v142.5l123.4 71.2 123.5-71.2v-26.8z"/>
		</g>
		<g id="&lt;Group&gt;">
			<path id="&lt;Path&gt;" class="s0" d="m307.1 231.8v13.8l-30.1-17.4v-4.9z"/>
		</g>
		<g id="&lt;Group&gt;">
			<path id="&lt;Path&gt;" class="s0" d="m266 248.7l-112.5 65-112.5-65v-129.9l112.5-64.8v34.8l-82.4 47.3v95.2l82.4 47.6 82.5-47.6v-14.2l28.9 16.7z"/>
		</g>
		<g id="&lt;Group&gt;">
			<path id="&lt;Path&gt;" class="s0" d="m307.1 210.8v34.8l-30.1-17.4-109.6-63.3 30.1-17.3z"/>
		</g>
		<g id="&lt;Group&gt;">
			<path id="&lt;Path&gt;" class="s1" d="m307 0.5v41l-153.5 88.6v-40.3z"/>
		</g>
		<g id="&lt;Group&gt;">
			<path id="&lt;Path&gt;" class="s0" d="m307.1 40.5v43.8l-109.7 63.3-30 17.4-13.9-8.1v-27.7-0.1 9.7l153.6-89.2v-9.1z"/>
		</g>
	</g>
</svg>